<svg width="32" height="32" viewBox="0 0 32 32" fill="none" xmlns="http://www.w3.org/2000/svg">
<circle cx="16" cy="16" r="16" fill="#24FF00"/>
<path d="M10.598 23V8.45455H15.9247C16.9569 8.45455 17.8116 8.625 18.4886 8.96591C19.1657 9.30208 19.6723 9.759 20.0085 10.3366C20.3447 10.9096 20.5128 11.5559 20.5128 12.2756C20.5128 12.8816 20.4015 13.393 20.179 13.8097C19.9564 14.2216 19.6581 14.553 19.2841 14.804C18.9148 15.0502 18.5076 15.2301 18.0625 15.3438V15.4858C18.5455 15.5095 19.0166 15.6657 19.4759 15.9545C19.9399 16.2386 20.3234 16.6435 20.6264 17.169C20.9295 17.6946 21.081 18.3338 21.081 19.0866C21.081 19.83 20.9058 20.4976 20.5554 21.0895C20.2098 21.6766 19.6747 22.143 18.9503 22.4886C18.2259 22.8295 17.3002 23 16.1733 23H10.598ZM12.7926 21.1179H15.9602C17.0114 21.1179 17.7642 20.9143 18.2188 20.5071C18.6733 20.0999 18.9006 19.5909 18.9006 18.9801C18.9006 18.5208 18.7846 18.0994 18.5526 17.7159C18.3205 17.3324 17.9891 17.027 17.5582 16.7997C17.1321 16.5724 16.6255 16.4588 16.0384 16.4588H12.7926V21.1179ZM12.7926 14.7472H15.733C16.2254 14.7472 16.6681 14.6525 17.0611 14.4631C17.4588 14.2737 17.7737 14.0085 18.0057 13.6676C18.2424 13.322 18.3608 12.9148 18.3608 12.446C18.3608 11.8447 18.1501 11.3404 17.7287 10.9332C17.3073 10.526 16.661 10.3224 15.7898 10.3224H12.7926V14.7472Z" fill="white"/>
</svg>
